<svg width="421" height="412" viewBox="0 0 421 412" fill="none" xmlns="http://www.w3.org/2000/svg">
<rect width="421" height="412" fill="#1B1B1B"/>
<g filter="url(#filter0_b_144_2135)">
<path d="M209.025 398.712L207.573 398.713L207.573 398.708C101.913 398.014 16.554 312.19 16.6197 206.346C16.6857 100.021 104.238 13.7482 210.571 13.6604C316.904 13.5726 404.35 99.7012 404.284 206.026C404.218 311.813 318.843 397.743 213.261 398.702C212.721 398.706 212.18 398.709 211.639 398.71L209.025 398.712Z" stroke="#747474" stroke-opacity="0.5"/>
</g>
<path d="M91.56 231.36L37.8 213.184V193.216L91.56 175.04V190.4L53.416 202.048V204.352L91.56 216V231.36ZM273.202 273.6L310.834 158.4H326.962L289.33 273.6H273.202ZM328.075 231.36V216L366.219 204.352V202.048L328.075 190.4V175.04L381.835 193.216V213.184L328.075 231.36Z" fill="#3D5AFF"/>
<path d="M126.635 248V158.4H142.763V192.32H145.067C145.75 190.955 146.816 189.589 148.267 188.224C149.718 186.859 151.638 185.749 154.027 184.896C156.502 183.957 159.616 183.488 163.371 183.488C168.32 183.488 172.63 184.64 176.299 186.944C180.054 189.163 182.955 192.277 185.003 196.288C187.051 200.213 188.075 204.821 188.075 210.112V248H171.947V211.392C171.947 206.613 170.752 203.029 168.363 200.64C166.059 198.251 162.731 197.056 158.379 197.056C153.43 197.056 149.59 198.72 146.859 202.048C144.128 205.291 142.763 209.856 142.763 215.744V248H126.635ZM225.734 249.792C219.59 249.792 214.001 248.512 208.966 245.952C204.017 243.392 200.091 239.68 197.19 234.816C194.289 229.952 192.838 224.064 192.838 217.152V215.36C192.838 208.448 194.289 202.56 197.19 197.696C200.091 192.832 204.017 189.12 208.966 186.56C214.001 184 219.59 182.72 225.734 182.72C231.793 182.72 236.998 183.787 241.35 185.92C245.702 188.053 249.201 190.997 251.846 194.752C254.577 198.421 256.369 202.603 257.222 207.296L241.606 210.624C241.265 208.064 240.497 205.76 239.302 203.712C238.107 201.664 236.401 200.043 234.182 198.848C232.049 197.653 229.361 197.056 226.118 197.056C222.875 197.056 219.931 197.781 217.286 199.232C214.726 200.597 212.678 202.688 211.142 205.504C209.691 208.235 208.966 211.605 208.966 215.616V216.896C208.966 220.907 209.691 224.32 211.142 227.136C212.678 229.867 214.726 231.957 217.286 233.408C219.931 234.773 222.875 235.456 226.118 235.456C230.982 235.456 234.651 234.219 237.126 231.744C239.686 229.184 241.307 225.856 241.99 221.76L257.606 225.472C256.497 229.995 254.577 234.133 251.846 237.888C249.201 241.557 245.702 244.459 241.35 246.592C236.998 248.725 231.793 249.792 225.734 249.792Z" fill="white"/>
<defs>
<filter id="filter0_b_144_2135" x="-4.88037" y="-7.83972" width="430.664" height="428.072" filterUnits="userSpaceOnUse" color-interpolation-filters="sRGB">
<feFlood flood-opacity="0" result="BackgroundImageFix"/>
<feGaussianBlur in="BackgroundImageFix" stdDeviation="10.5"/>
<feComposite in2="SourceAlpha" operator="in" result="effect1_backgroundBlur_144_2135"/>
<feBlend mode="normal" in="SourceGraphic" in2="effect1_backgroundBlur_144_2135" result="shape"/>
</filter>
</defs>
</svg>
