<svg width="53" height="24" viewBox="0 0 53 24" fill="none" xmlns="http://www.w3.org/2000/svg">
<g filter="url(#filter0_i_471_87)">
<rect width="52.05" height="23.4225" rx="11.7112" fill="url(#paint0_linear_471_87)"/>
</g>
<path d="M29.5754 6.73684C29.7022 6.55524 29.9834 6.6048 30.0403 6.81879L30.2418 7.57518C30.265 7.66217 30.3315 7.73102 30.4176 7.7572L31.1665 7.98484C31.3784 8.04924 31.4182 8.33198 31.2323 8.45231L30.5751 8.87765C30.4996 8.92657 30.4546 9.01108 30.4564 9.10109L30.4713 9.88371C30.4755 10.1051 30.2189 10.2303 30.047 10.0907L29.4394 9.59716C29.3695 9.5404 29.2753 9.52378 29.1902 9.55323L28.4505 9.80928C28.2413 9.88171 28.0429 9.67633 28.1226 9.46972L28.4042 8.73937C28.4366 8.65537 28.4232 8.56059 28.3689 8.48878L27.8968 7.86441C27.7633 7.68777 27.8973 7.43566 28.1184 7.44758L28.9001 7.48972C28.99 7.49456 29.076 7.4526 29.1275 7.37877L29.5754 6.73684Z" fill="url(#paint1_linear_471_87)"/>
<path d="M23.6698 3.22439C23.7007 3.18013 23.7693 3.19221 23.7832 3.24436L23.8323 3.42871C23.8379 3.44992 23.8541 3.4667 23.8751 3.47308L24.0576 3.52856C24.1093 3.54425 24.119 3.61317 24.0737 3.6425L23.9135 3.74616C23.8951 3.75808 23.8841 3.77868 23.8845 3.80062L23.8882 3.99136C23.8892 4.04533 23.8267 4.07584 23.7848 4.04181L23.6367 3.92153C23.6197 3.90769 23.5967 3.90364 23.576 3.91082L23.3957 3.97322C23.3447 3.99088 23.2963 3.94082 23.3157 3.89046L23.3844 3.71246C23.3923 3.69199 23.389 3.66889 23.3758 3.65138L23.2607 3.49921C23.2282 3.45616 23.2608 3.39471 23.3147 3.39761L23.5052 3.40788C23.5272 3.40907 23.5481 3.39884 23.5607 3.38084L23.6698 3.22439Z" fill="url(#paint2_linear_471_87)"/>
<path d="M37.0723 8.62741C37.1043 8.49705 37.2741 8.46362 37.353 8.57213L37.6322 8.9557C37.6644 8.99982 37.717 9.02421 37.7714 9.02018L38.2445 8.98519C38.3784 8.97529 38.4627 9.12644 38.3839 9.2351L38.1053 9.61916C38.0733 9.66333 38.0664 9.72093 38.087 9.77144L38.2665 10.2106C38.3173 10.3348 38.1996 10.4617 38.0719 10.4203L37.6206 10.2741C37.5686 10.2573 37.5117 10.2685 37.4701 10.3038L37.1079 10.6102C37.0054 10.6969 36.8484 10.6241 36.8483 10.4899L36.8478 10.0155C36.8478 9.96089 36.8195 9.91023 36.7731 9.8815L36.3698 9.63171C36.2557 9.56104 36.2764 9.38922 36.404 9.34763L36.8551 9.20063C36.9069 9.18372 36.9464 9.1412 36.9594 9.0882L37.0723 8.62741Z" fill="url(#paint3_linear_471_87)"/>
<path d="M42.4232 5.57021C42.4411 5.4972 42.5362 5.47847 42.5804 5.53925L42.7368 5.75408C42.7548 5.77879 42.7843 5.79244 42.8147 5.79019L43.0797 5.77059C43.1547 5.76505 43.2019 5.84971 43.1578 5.91056L43.0018 6.12566C42.9838 6.1504 42.9799 6.18266 42.9915 6.21095L43.092 6.45691C43.1205 6.5265 43.0545 6.59755 42.983 6.57438L42.7302 6.49249C42.7012 6.48307 42.6693 6.48935 42.646 6.50909L42.4431 6.6807C42.3857 6.72925 42.2978 6.6885 42.2977 6.61333L42.2975 6.34762C42.2974 6.31706 42.2816 6.28868 42.2556 6.27259L42.0297 6.13269C41.9658 6.09311 41.9774 5.99688 42.0489 5.97359L42.3015 5.89125C42.3306 5.88178 42.3527 5.85797 42.3599 5.82829L42.4232 5.57021Z" fill="url(#paint4_linear_471_87)"/>
<path d="M34.4619 2.56664C34.5484 2.52961 34.6386 2.61059 34.6111 2.70053L34.514 3.01846C34.5028 3.05503 34.5114 3.09478 34.5365 3.12355L34.7555 3.37372C34.8174 3.44449 34.7683 3.55536 34.6742 3.55702L34.3419 3.56288C34.3036 3.56356 34.2685 3.58394 34.2489 3.61678L34.0786 3.90231C34.0304 3.98308 33.9098 3.97062 33.8792 3.8817L33.7709 3.56739C33.7584 3.53124 33.7282 3.5041 33.6909 3.49562L33.3667 3.42192C33.275 3.40107 33.2496 3.28249 33.3247 3.22588L33.5902 3.02576C33.6207 3.00275 33.6372 2.96558 33.6337 2.92751L33.6036 2.59643C33.5951 2.50277 33.7 2.44195 33.7771 2.49588L34.0494 2.68651C34.0808 2.70843 34.1212 2.71261 34.1563 2.69755L34.4619 2.56664Z" fill="url(#paint5_linear_471_87)"/>
<defs>
<filter id="filter0_i_471_87" x="0" y="0" width="52.05" height="29.4226" filterUnits="userSpaceOnUse" color-interpolation-filters="sRGB">
<feFlood flood-opacity="0" result="BackgroundImageFix"/>
<feBlend mode="normal" in="SourceGraphic" in2="BackgroundImageFix" result="shape"/>
<feColorMatrix in="SourceAlpha" type="matrix" values="0 0 0 0 0 0 0 0 0 0 0 0 0 0 0 0 0 0 127 0" result="hardAlpha"/>
<feMorphology radius="3" operator="erode" in="SourceAlpha" result="effect1_innerShadow_471_87"/>
<feOffset dy="6"/>
<feGaussianBlur stdDeviation="4"/>
<feComposite in2="hardAlpha" operator="arithmetic" k2="-1" k3="1"/>
<feColorMatrix type="matrix" values="0 0 0 0 0 0 0 0 0 0 0 0 0 0 0 0 0 0 0.25 0"/>
<feBlend mode="normal" in2="shape" result="effect1_innerShadow_471_87"/>
</filter>
<linearGradient id="paint0_linear_471_87" x1="26.6756" y1="0.910875" x2="26.025" y2="23.4225" gradientUnits="userSpaceOnUse">
<stop stop-color="#2B4485"/>
<stop offset="1" stop-color="#AFCAFF"/>
</linearGradient>
<linearGradient id="paint1_linear_471_87" x1="29.8961" y1="6.27728" x2="29.1281" y2="10.6344" gradientUnits="userSpaceOnUse">
<stop stop-color="#ADDDFF"/>
<stop offset="1" stop-color="#EDF6FF" stop-opacity="0"/>
</linearGradient>
<linearGradient id="paint2_linear_471_87" x1="23.748" y1="3.11238" x2="23.5608" y2="4.17432" gradientUnits="userSpaceOnUse">
<stop stop-color="#ADDDFF"/>
<stop offset="1" stop-color="#EDF6FF" stop-opacity="0"/>
</linearGradient>
<linearGradient id="paint3_linear_471_87" x1="37.1532" y1="8.29753" x2="37.6712" y2="10.9285" gradientUnits="userSpaceOnUse">
<stop stop-color="#ADDDFF"/>
<stop offset="1" stop-color="#EDF6FF" stop-opacity="0"/>
</linearGradient>
<linearGradient id="paint4_linear_471_87" x1="42.4685" y1="5.38545" x2="42.7586" y2="6.859" gradientUnits="userSpaceOnUse">
<stop stop-color="#ADDDFF"/>
<stop offset="1" stop-color="#EDF6FF" stop-opacity="0"/>
</linearGradient>
<linearGradient id="paint5_linear_471_87" x1="34.6807" y1="2.47292" x2="33.4258" y2="3.87148" gradientUnits="userSpaceOnUse">
<stop stop-color="#ADDDFF"/>
<stop offset="1" stop-color="#EDF6FF" stop-opacity="0"/>
</linearGradient>
</defs>
</svg>
