<svg width="18" height="18" viewBox="0 0 18 18" fill="none" xmlns="http://www.w3.org/2000/svg">
<path d="M9 0.719971C4.43484 0.719971 0.720001 4.43481 0.720001 8.99997C0.720001 13.5651 4.43484 17.28 9 17.28C13.5652 17.28 17.28 13.5651 17.28 8.99997C17.28 4.43481 13.5652 0.719971 9 0.719971ZM12.1356 11.6244C12.276 11.7648 12.276 11.9952 12.1356 12.1356C12.0636 12.204 11.9736 12.24 11.88 12.24C11.7864 12.24 11.6964 12.204 11.6244 12.1356L9 9.51117L6.3756 12.1356C6.3036 12.204 6.2136 12.24 6.12 12.24C6.0264 12.24 5.9364 12.204 5.8644 12.1356C5.724 11.9952 5.724 11.7648 5.8644 11.6244L8.4888 8.99997L5.8644 6.37557C5.724 6.23517 5.724 6.00477 5.8644 5.86437C6.0048 5.72397 6.2352 5.72397 6.3756 5.86437L9 8.48877L11.6244 5.86437C11.7648 5.72397 11.9952 5.72397 12.1356 5.86437C12.276 6.00477 12.276 6.23517 12.1356 6.37557L9.5112 8.99997L12.1356 11.6244Z" fill="#737373"/>
</svg>
