<svg width="15" height="16" viewBox="0 0 15 16" fill="none" xmlns="http://www.w3.org/2000/svg">
<path d="M11.8332 15C13.0298 15 13.9998 14.0599 13.9998 12.9C13.9998 11.7402 13.0298 10.8 11.8332 10.8C10.6365 10.8 9.6665 11.7402 9.6665 12.9C9.6665 14.0599 10.6365 15 11.8332 15Z" stroke="#3D5AFF" stroke-linecap="round" stroke-linejoin="round"/>
<path d="M11.8333 5.2C13.0299 5.2 14 4.25979 14 3.1C14 1.9402 13.0299 1 11.8333 1C10.6366 1 9.66663 1.9402 9.66663 3.1C9.66663 4.25979 10.6366 5.2 11.8333 5.2Z" stroke="#3D5AFF" stroke-linecap="round" stroke-linejoin="round"/>
<path d="M3.16667 10.0999C4.36329 10.0999 5.33334 9.15973 5.33334 7.9999C5.33334 6.84007 4.36329 5.8999 3.16667 5.8999C1.97005 5.8999 1 6.84007 1 7.9999C1 9.15973 1.97005 10.0999 3.16667 10.0999Z" stroke="#3D5AFF" stroke-linecap="round" stroke-linejoin="round"/>
<path d="M10.0272 4.1499L4.97168 6.9499" stroke="#3D5AFF"/>
<path d="M4.97168 9.05005L10.0272 11.85" stroke="#3D5AFF"/>
</svg>
