<svg width="31" height="31" viewBox="0 0 31 31" fill="none" xmlns="http://www.w3.org/2000/svg">
<g filter="url(#filter0_d_439_516)">
<circle cx="17.74" cy="14.2196" r="9.1" fill="url(#paint0_linear_439_516)"/>
<circle cx="17.74" cy="14.2197" r="7.54" fill="url(#paint1_linear_439_516)"/>
<circle cx="17.74" cy="14.2196" r="9.1" fill="#FF9255"/>
<circle cx="17.74" cy="14.2197" r="7.54" fill="url(#paint2_linear_439_516)"/>
<mask id="mask0_439_516" style="mask-type:alpha" maskUnits="userSpaceOnUse" x="8" y="5" width="19" height="19">
<circle cx="17.74" cy="14.2196" r="9.1" fill="url(#paint3_linear_439_516)"/>
</mask>
<g mask="url(#mask0_439_516)">
<path d="M19.69 15.0063C24.578 9.28627 29.44 9.15627 31.26 9.80627L34.25 12.6663L31.65 25.0163L12.8 30.8663L2.27004 26.0563L1.10004 14.6163C5.26004 17.1296 14.802 20.7263 19.69 15.0063Z" fill="url(#paint4_linear_439_516)"/>
<path d="M16.96 14.2151C6.24888 7.71959 3.09348 9.69434 1.47138 10.7449L-0.781971 14.2151L4.58451 25.638L24.2741 27.0031L33.4182 19.9036L31.93 8.50066C28.4583 11.9021 23.7798 18.3507 16.96 14.2151Z" fill="url(#paint5_linear_439_516)"/>
</g>
</g>
<defs>
<filter id="filter0_d_439_516" x="0.640045" y="0.119629" width="30.2" height="30.2002" filterUnits="userSpaceOnUse" color-interpolation-filters="sRGB">
<feFlood flood-opacity="0" result="BackgroundImageFix"/>
<feColorMatrix in="SourceAlpha" type="matrix" values="0 0 0 0 0 0 0 0 0 0 0 0 0 0 0 0 0 0 127 0" result="hardAlpha"/>
<feOffset dx="-2" dy="1"/>
<feGaussianBlur stdDeviation="3"/>
<feColorMatrix type="matrix" values="0 0 0 0 0 0 0 0 0 0 0 0 0 0 0 0 0 0 0.25 0"/>
<feBlend mode="normal" in2="BackgroundImageFix" result="effect1_dropShadow_439_516"/>
<feBlend mode="normal" in="SourceGraphic" in2="effect1_dropShadow_439_516" result="shape"/>
</filter>
<linearGradient id="paint0_linear_439_516" x1="17.74" y1="5.11963" x2="17.74" y2="23.3196" gradientUnits="userSpaceOnUse">
<stop stop-color="#FFC123"/>
<stop offset="1" stop-color="#F8832E"/>
</linearGradient>
<linearGradient id="paint1_linear_439_516" x1="17.74" y1="6.67969" x2="17.74" y2="21.7597" gradientUnits="userSpaceOnUse">
<stop stop-color="#FFBF24"/>
<stop offset="1" stop-color="#F4924B"/>
</linearGradient>
<linearGradient id="paint2_linear_439_516" x1="17.74" y1="6.67969" x2="17.74" y2="21.7597" gradientUnits="userSpaceOnUse">
<stop stop-color="#FFBF24"/>
<stop offset="1" stop-color="#F4924B"/>
</linearGradient>
<linearGradient id="paint3_linear_439_516" x1="17.74" y1="5.11963" x2="17.74" y2="23.3196" gradientUnits="userSpaceOnUse">
<stop stop-color="#FFC123"/>
<stop offset="1" stop-color="#F8832E"/>
</linearGradient>
<linearGradient id="paint4_linear_439_516" x1="17.675" y1="9.53955" x2="17.675" y2="30.8663" gradientUnits="userSpaceOnUse">
<stop stop-color="#FF9D55" stop-opacity="0.6"/>
<stop offset="1" stop-color="#FD8A37" stop-opacity="0"/>
</linearGradient>
<linearGradient id="paint5_linear_439_516" x1="14.6321" y1="7.36576" x2="19.5294" y2="28.1226" gradientUnits="userSpaceOnUse">
<stop stop-color="#FFBD3E" stop-opacity="0.49"/>
<stop offset="1" stop-color="white" stop-opacity="0"/>
</linearGradient>
</defs>
</svg>
